<svg width="83" height="81" viewBox="0 0 83 81" fill="none" xmlns="http://www.w3.org/2000/svg">
<path fill-rule="evenodd" clip-rule="evenodd" d="M6.82506 19.1926C16.2601 9.42405 40.7004 -3.38469 62.9812 23.5286C61.3162 19.1427 54.8681 9.53367 42.3957 6.18446C51.1748 7.28093 68.3092 15.0658 66.6139 37.4338C64.9187 48.7972 57.5321 53.6316 54.0507 54.6284C60.1053 50.4917 69.5504 38.2113 58.8944 22.1829C61.0093 28.159 62.453 41.4101 51.867 47.7245C51.3573 48.0285 51.0234 48.5702 51.0234 49.1637C51.0234 50.2437 52.0664 50.9968 53.0382 50.5255C55.8196 49.1763 59.5325 46.4956 60.8621 42.3679C60.0548 46.5046 54.9589 54.5686 41.0334 53.7313C43.2029 55.5255 49.4492 58.4561 57.078 55.8246C67.3708 52.2741 72.5171 39.8261 71.4576 28.7617C70.4733 18.4833 62.8298 4.98831 44.3634 0.652279C25.897 -3.68375 7.73325 14.8565 6.82506 19.1926ZM18.6807 73.8874C9.01679 64.3397 -3.37023 39.9022 24.3931 18.5338C19.915 20.0746 10.038 26.2158 6.35434 38.4537C7.67102 29.8099 15.9539 13.0727 38.5517 15.2742C50.0122 17.2162 54.7308 24.6247 55.6575 28.0862C51.6137 22.0096 39.4078 12.3927 22.9348 22.5379C29.032 20.5905 42.4743 19.4772 48.6163 30.0755C48.914 30.5893 49.449 30.9327 50.0427 30.9466C51.1388 30.9721 51.924 29.9275 51.4563 28.9362C50.1479 26.1635 47.5294 22.472 43.4097 21.0706C47.5772 21.9654 55.6184 27.1879 54.4427 40.92C56.3097 38.8198 59.4229 32.7205 56.9395 25.1248C53.5889 14.8767 41.1121 9.50099 29.8892 10.2865C19.4635 11.0161 5.62555 18.2461 0.801812 36.38C-4.02193 54.514 14.3138 72.8883 18.6807 73.8874ZM18.7864 57.7C41.3256 84.4025 65.6413 71.3645 74.9818 61.5077C74.1154 65.8521 56.1312 84.5624 37.6238 80.4002C19.1164 76.238 11.3433 62.8155 10.26 52.5468C9.09383 41.4929 14.12 28.9971 24.3781 25.35C31.9811 22.6468 38.2554 25.5185 40.4422 27.2923C26.5092 26.586 21.4912 34.6975 20.7239 38.8416C22.0136 34.7016 25.7005 31.9861 28.4688 30.6108C29.4359 30.1303 30.4862 30.8737 30.4966 31.9536C30.5023 32.5471 30.1736 33.0919 29.6669 33.4007C19.1422 39.8143 20.7135 53.0513 22.886 59.0072C12.076 43.0797 21.4023 30.711 27.4168 26.5176C23.9452 27.5471 16.6055 32.4508 15.0198 43.8296C13.5402 66.2125 30.7489 73.8359 39.5382 74.8498C27.034 71.618 20.4936 62.07 18.7864 57.7ZM62.9476 6.12851C72.7756 15.5113 85.5845 39.7357 58.1957 61.5707C62.6464 59.9543 72.4155 53.647 75.8865 41.3485C74.7198 50.0133 66.7284 66.8882 44.0957 65.0693C32.6032 63.3214 27.7569 55.9938 26.7703 52.5486C30.9188 58.5559 43.2897 67.9649 59.5844 57.5424C53.5218 59.5927 40.1008 60.9332 33.7759 50.4404C33.4694 49.9318 32.9286 49.5974 32.3347 49.5936C31.2383 49.5866 30.4713 50.6443 30.9562 51.6276C32.3124 54.3778 34.9945 58.0244 39.1379 59.3559C34.9555 58.5318 26.8249 53.446 27.7624 39.696C25.9321 41.8275 22.9251 47.9786 25.5398 55.5311C29.0676 65.7211 41.6358 70.8849 52.8434 69.9097C63.2549 69.0038 76.9655 61.5408 81.4741 43.3279C85.9828 25.1151 67.3312 7.05358 62.9476 6.12851Z" fill="url(#paint0_radial_885_84545)"/>
<defs>
<radialGradient id="paint0_radial_885_84545" cx="0" cy="0" r="1" gradientUnits="userSpaceOnUse" gradientTransform="translate(41.8786 42.371) scale(17.2248 199.391)">
<stop stop-color="#BFC1FF"/>
<stop offset="0.99" stop-color="#467DFF"/>
</radialGradient>
</defs>
</svg>
